<svg width="33" height="34" viewBox="0 0 33 34" fill="none" xmlns="http://www.w3.org/2000/svg">
<path fill-rule="evenodd" clip-rule="evenodd" d="M10.3519 0H22.5254C28.1272 0 32.67 4.65528 32.67 10.3959V22.871C32.67 28.6116 28.1272 33.2668 22.5254 33.2668H10.3519C4.75003 33.2668 0.207275 28.6116 0.207275 22.871V10.3959C0.207275 4.65528 4.75003 0 10.3519 0ZM22.5257 30.1485C26.4415 30.1485 29.6269 26.8841 29.6269 22.8713V10.3963C29.6269 6.38345 26.4415 3.11914 22.5257 3.11914H10.3521C6.43632 3.11914 3.25091 6.38345 3.25091 10.3963V22.8713C3.25091 26.8841 6.43632 30.1485 10.3521 30.1485H22.5257Z" fill="black"/>
<path fill-rule="evenodd" clip-rule="evenodd" d="M8.32349 16.6339C8.32349 12.0409 11.9573 8.31714 16.4392 8.31714C20.921 8.31714 24.5548 12.0409 24.5548 16.6339C24.5548 21.2268 20.921 24.9506 16.4392 24.9506C11.9573 24.9506 8.32349 21.2268 8.32349 16.6339ZM11.3669 16.6335C11.3669 19.4986 13.6434 21.8314 16.4392 21.8314C19.2351 21.8314 21.5115 19.4986 21.5115 16.6335C21.5115 13.7663 19.2351 11.4355 16.4392 11.4355C13.6434 11.4355 11.3669 13.7663 11.3669 16.6335Z" fill="black"/>
<ellipse cx="25.1639" cy="7.69316" rx="1.08141" ry="1.1082" fill="black"/>
</svg>
